<svg xmlns="http://www.w3.org/2000/svg" viewBox="0 0 32 32"><path d="M16 4C9.3845336 4 4 9.3845336 4 16C4 16.73 4.0653125 17.461875 4.1953125 18.171875L6.1640625 17.8125C6.0550625 17.2195 6 16.609 6 16C6 10.465466 10.465466 6 16 6C21.534534 6 26 10.465466 26 16L28 16C28 9.3845336 22.615466 4 16 4 z M 6.7675781 19.849609L4.921875 20.619141C5.359875 21.667141 5.9441562 22.647156 6.6601562 23.535156L8.21875 22.279297C7.62075 21.538297 7.1315781 20.721609 6.7675781 19.849609 z M 23.738281 22.335938C23.318281 22.845938 22.846937 23.316328 22.335938 23.736328L23.605469 25.28125C24.216469 24.77925 24.781203 24.216516 25.283203 23.603516L23.738281 22.335938 z M 9.7207031 23.783203L8.4648438 25.339844C9.3518437 26.055844 10.331859 26.640125 11.380859 27.078125L12.150391 25.232422C11.277391 24.868422 10.459703 24.381203 9.7207031 23.783203 z M 20.689453 24.835938C20.105453 25.146937 19.489375 25.398937 18.859375 25.585938L19.427734 27.503906C20.185734 27.277906 20.926906 26.974563 21.628906 26.601562L20.689453 24.835938 z M 14.189453 25.837891L13.828125 27.804688C14.539125 27.934688 15.271 28 16 28C16.367 28 16.729891 27.983172 17.087891 27.951172L16.910156 25.958984C16.610156 25.984984 16.307 26 16 26C15.391 26 14.781453 25.945891 14.189453 25.837891 z"/></svg>